<?xml version="1.0" encoding="UTF-8"?>
<svg version="1.1" xmlns="http://www.w3.org/2000/svg" width="640" height="427">
<path d="M0 0 C0 0.66 0 1.32 0 2 C-0.84820312 2.13535156 -1.69640625 2.27070312 -2.5703125 2.41015625 C-23.50903944 6.25275779 -42.16846769 18.9272404 -54.5625 36.125 C-66.78854619 54.06122772 -75.42113767 75.72135015 -71.31640625 97.65234375 C-67.92563035 109.48488536 -62.81981371 118.08125774 -51.96875 124.1328125 C-48.8379463 125.51185699 -46.37620398 125.34926248 -43 125 C-37.45115563 122.3365547 -34.74281593 118.32171855 -32 113 C-31.04831317 110.14493951 -30.8099054 108.09062718 -30.68359375 105.11328125 C-30.64169922 104.17548828 -30.59980469 103.23769531 -30.55664062 102.27148438 C-30.51732422 101.29501953 -30.47800781 100.31855469 -30.4375 99.3125 C-30.37272461 97.83040039 -30.37272461 97.83040039 -30.30664062 96.31835938 C-30.20058346 93.87904454 -30.09852286 91.43962887 -30 89 C-29.34 89 -28.68 89 -28 89 C-23.89650596 106.96246448 -23.84326596 124.65488346 -24 143 C-22.91203125 143.52207031 -21.8240625 144.04414063 -20.703125 144.58203125 C-1.52357088 154.06671486 11.93441289 167.33946627 19 188 C23.03992857 201.78984212 20.40612486 218.62477307 16 232 C15.58721792 233.2838472 15.17445774 234.56770145 14.76171875 235.8515625 C13.94008067 238.3720187 13.08892807 240.87671727 12.22265625 243.3828125 C11.02716513 246.91963286 9.97428187 250.47645447 8.9375 254.0625 C7.5310854 258.65155801 6.05449765 262.22679701 3 266 C2.59918213 266.51594727 2.19836426 267.03189453 1.78540039 267.56347656 C-2.14522908 272.42844171 -6.55590072 275.84570869 -11.6875 279.375 C-13.30134962 280.51167187 -14.91333598 281.65099386 -16.5234375 282.79296875 C-17.29655273 283.34130371 -18.06966797 283.88963867 -18.86621094 284.45458984 C-21.60539361 286.43846013 -24.21034357 288.52671228 -26.8125 290.6875 C-27.67359375 291.40164063 -28.5346875 292.11578125 -29.421875 292.8515625 C-31.16316719 294.30263932 -32.90270916 295.75581862 -34.640625 297.2109375 C-45.95947363 306.32049214 -58.55320435 313.56119006 -71 321 C-71.77279297 321.46857422 -72.54558594 321.93714844 -73.34179688 322.41992188 C-101.61126532 339.52390811 -146.11832591 359.86535473 -180 359 C-178.43398803 355.86797605 -175.88930821 355.75416322 -172.625 354.625 C-142.25840559 344.42295498 -142.25840559 344.42295498 -116 327 C-115.89232174 325.55830537 -115.85319047 324.11142142 -115.84178162 322.66575623 C-115.8319928 321.73041046 -115.82220398 320.7950647 -115.81211853 319.83137512 C-115.80636307 318.79703842 -115.8006076 317.76270172 -115.79467773 316.69702148 C-115.78477814 315.61422913 -115.77487854 314.53143677 -115.76467896 313.41583252 C-115.73295588 309.81760891 -115.70826397 306.21937207 -115.68359375 302.62109375 C-115.66303355 300.13387193 -115.64203734 297.64665368 -115.62062073 295.15943909 C-115.57096517 289.26982112 -115.52572497 283.38018203 -115.48259836 277.49051291 C-115.42843101 270.12970579 -115.36745396 262.76895781 -115.30664062 255.40820312 C-115.19894122 242.27217561 -115.09733335 229.1361082 -115 216 C-119.04432392 219.91591908 -119.04432392 219.91591908 -122.24609375 224.49609375 C-122.78520386 225.44681763 -122.78520386 225.44681763 -123.33520508 226.41674805 C-123.6989624 227.08359619 -124.06271973 227.75044434 -124.4375 228.4375 C-125.01890747 229.49094604 -125.01890747 229.49094604 -125.61206055 230.56567383 C-139.75422709 256.62351771 -147.71909638 288.35398413 -139.22265625 317.55859375 C-137.70748742 321.82333414 -135.98189534 325.91561834 -133.953125 329.9609375 C-133 332 -133 332 -133 334 C-139.35068022 331.88310659 -142.67036469 322.80832699 -145.75 317.125 C-154.95115282 297.82062055 -155.36776045 271.41670368 -154.87890625 250.48046875 C-154.85529526 249.25588455 -154.83168427 248.03130035 -154.80735779 246.76960754 C-154.73158957 242.9087607 -154.64719853 239.04816018 -154.5625 235.1875 C-154.50919209 232.54883965 -154.45645252 229.91016775 -154.40429688 227.27148438 C-154.276094 220.84750825 -154.14083648 214.42371092 -154 208 C-152.76180511 207.50019623 -152.76180511 207.50019623 -151.49859619 206.99029541 C-150.41656921 206.54780457 -149.33454224 206.10531372 -148.21972656 205.64941406 C-146.61028168 204.99492279 -146.61028168 204.99492279 -144.96832275 204.32720947 C-138.53210172 201.44941813 -135.34304102 197.63471771 -132.25 191.25 C-131.39148438 189.52523437 -131.39148438 189.52523437 -130.515625 187.765625 C-127.46826146 180.74241901 -126.60986021 173.53448641 -126.625 165.9375 C-126.62588623 165.12039551 -126.62677246 164.30329102 -126.62768555 163.46142578 C-126.78451261 155.24432442 -128.5629892 147.80891632 -131 140 C-131.30808594 139.01257813 -131.61617188 138.02515625 -131.93359375 137.0078125 C-132.58915414 134.99408155 -133.28772306 132.99437542 -134 131 C-130.16738632 132.50903805 -128.38986696 134.74907809 -125.9375 138 C-123.68031998 140.9806907 -122.13248611 142.91167593 -119 145 C-118.01 145 -117.02 145 -116 145 C-116 127.84 -116 110.68 -116 93 C-123.58146041 93 -126.79369265 93.80662131 -131.9375 98.9296875 C-144.74184352 113.78472666 -151.19797618 132.60240269 -151.1875 151.9375 C-151.18814453 153.14704346 -151.18878906 154.35658691 -151.18945312 155.6027832 C-151.14034271 163.9041173 -150.68707246 171.8508375 -149 180 C-152.95074353 177.36617098 -153.36636928 174.4206419 -154.5625 170.0625 C-154.87477539 168.99805664 -154.87477539 168.99805664 -155.19335938 167.91210938 C-161.58380303 145.45540926 -162.29139011 119.16101051 -151.0078125 98.22265625 C-144.14901957 87.21389328 -134.48671941 79.46953353 -122.8125 74 C-115.96810128 70.7242761 -110.41899227 66.41202694 -107.25 59.375 C-104.94934137 54.85548394 -100.54714409 53.55914114 -96.12109375 51.5546875 C-92.21035294 49.60665891 -89.06432725 47.13135382 -85.7421875 44.3203125 C-84 43 -84 43 -82 43 C-82 42.34 -82 41.68 -82 41 C-80.3563186 39.31066078 -78.6857124 37.64740076 -77 36 C-76.41347656 35.22785156 -75.82695312 34.45570312 -75.22265625 33.66015625 C-72.66806687 30.6027303 -69.81808699 28.18164285 -66.6875 25.75 C-66.07575928 25.27401367 -65.46401855 24.79802734 -64.83374023 24.30761719 C-45.93373514 9.89525161 -24.18453586 -1.21938836 0 0 Z M-99 93 C-98.79503906 93.66902344 -98.59007812 94.33804688 -98.37890625 95.02734375 C-93.94909405 110.81782264 -92.97552495 127.28846241 -101 142 C-101 142.99 -101 143.98 -101 145 C-93.34779011 140.59997931 -86.38444192 133.64360195 -84 125 C-82.65537161 115.388963 -85.29319495 107.00383243 -91.04296875 99.2421875 C-92.94851729 97.0277249 -94.8003424 94.92287949 -97 93 C-97.66 93 -98.32 93 -99 93 Z M-108 102 C-108 105.3 -108 108.6 -108 112 C-107.34 111.34 -106.68 110.68 -106 110 C-105.97624074 108.0068433 -105.97624074 108.0068433 -106.375 105.875 C-106.58125 104.59625 -106.7875 103.3175 -107 102 C-107.33 102 -107.66 102 -108 102 Z M-108 115 C-108 119.29 -108 123.58 -108 128 C-107.67 128 -107.34 128 -107 128 C-105.99607024 121.474566 -105.99607024 121.474566 -107 115 C-107.33 115 -107.66 115 -108 115 Z M-89 180 C-90.03349924 185.2163313 -90.23748989 190.31696959 -90.39453125 195.61328125 C-90.46341064 197.52151276 -90.53309938 199.4297152 -90.60351562 201.33789062 C-90.7098561 204.30788042 -90.81147767 207.27767416 -90.89868164 210.24829102 C-91.39074756 226.58515373 -92.38681411 242.63292353 -101 257 C-100.855625 256.19820313 -100.71125 255.39640625 -100.5625 254.5703125 C-97.91709949 238.36723437 -96.7567156 219.24711367 -104 204 C-104.66 203.67 -105.32 203.34 -106 203 C-108.14419424 206.21629135 -108.24856996 207.03067318 -108.24050903 210.72660828 C-108.24325836 211.69835999 -108.24600769 212.67011169 -108.24884033 213.67131042 C-108.24164978 214.73585953 -108.23445923 215.80040863 -108.22705078 216.8972168 C-108.22734283 218.01931549 -108.22763489 219.14141418 -108.22793579 220.29751587 C-108.22653993 224.01482821 -108.21096648 227.73194132 -108.1953125 231.44921875 C-108.19158329 234.02325837 -108.18873588 236.5972994 -108.18673706 239.17134094 C-108.17987511 245.25928368 -108.16410439 251.34714393 -108.14403808 257.43505555 C-108.12168845 264.36605932 -108.11068801 271.2970665 -108.10064721 278.22809732 C-108.07973839 292.48543677 -108.04455656 306.74271584 -108 321 C-99.98356769 317.1186076 -94.56647724 310.63079805 -89.375 303.5625 C-88.84132813 302.85029297 -88.30765625 302.13808594 -87.7578125 301.40429688 C-86.6925523 299.98093343 -85.63176578 298.55420986 -84.57568359 297.12402344 C-83.51019098 295.68773807 -82.43467793 294.25884085 -81.35009766 292.83691406 C-80.82206543 292.14436523 -80.2940332 291.45181641 -79.75 290.73828125 C-79.27820313 290.12380127 -78.80640625 289.50932129 -78.3203125 288.8762207 C-73.77555718 282.41792843 -71.72024422 275.88126828 -73 268 C-74.2655907 264.35756823 -75.69444005 261.08346469 -78.69921875 258.58984375 C-79.12847656 258.06519531 -79.55773437 257.54054688 -80 257 C-79.55626026 253.28472063 -78.34434161 250.33048856 -76.671875 247.0078125 C-76.20402588 246.06317139 -75.73617676 245.11853027 -75.25415039 244.14526367 C-74.50959595 242.65023315 -74.50959595 242.65023315 -73.75 241.125 C-65.49899258 224.16628733 -60.1162993 206.77157483 -58 188 C-58.66 188 -59.32 188 -60 188 C-61.6329891 190.23802854 -63.11089546 192.45908269 -64.5625 194.8125 C-64.99997559 195.51503906 -65.43745117 196.21757812 -65.88818359 196.94140625 C-70.95906001 205.28528633 -74.99824535 214.10721189 -79 223 C-78.31327297 216.37381476 -76.73745327 210.43842853 -74.7421875 204.07421875 C-73.70963184 200.98771439 -73.70963184 200.98771439 -75 198 C-75.33 198 -75.66 198 -76 198 C-76 197.34 -76 196.68 -76 196 C-80.65052872 195.73067479 -80.65052872 195.73067479 -85 197 C-85.04898438 196.35933594 -85.09796875 195.71867188 -85.1484375 195.05859375 C-85.6040145 189.78803915 -86.3597379 185.03013712 -88 180 C-88.33 180 -88.66 180 -89 180 Z M-8 186 C-8.99 186.495 -8.99 186.495 -10 187 C-11.13450617 190.92343865 -11.1210621 194.74752949 -11.11352539 198.80981445 C-11.11367142 199.47378738 -11.11381744 200.13776031 -11.1139679 200.82185364 C-11.11327483 203.00236349 -11.10551099 205.18278644 -11.09765625 207.36328125 C-11.09578992 208.8807114 -11.09436703 210.39814215 -11.09336853 211.91557312 C-11.08956032 215.89891235 -11.07974459 219.8822148 -11.06866455 223.86553955 C-11.05841389 227.93444318 -11.05386309 232.00335279 -11.04882812 236.07226562 C-11.03812074 244.04819391 -11.02106478 252.02409237 -11 260 C-9.05396726 260.59070014 -9.05396726 260.59070014 -7 261 C-5.66871888 259.89442383 -5.66871888 259.89442383 -5.87974548 257.10838318 C-5.88196609 255.81376663 -5.88418671 254.51915009 -5.88647461 253.18530273 C-5.88632858 252.47314606 -5.88618256 251.76098938 -5.8860321 251.0272522 C-5.8867313 248.66266888 -5.89452394 246.29816339 -5.90234375 243.93359375 C-5.90420791 242.29834537 -5.90563182 240.66309643 -5.90663147 239.02784729 C-5.91045682 234.71565215 -5.92028725 230.40349048 -5.93133545 226.09130859 C-5.9415492 221.69434054 -5.94612901 217.29736711 -5.95117188 212.90039062 C-5.96190951 204.26691169 -5.97898613 195.63346 -6 187 C-6.66 186.67 -7.32 186.34 -8 186 Z M2 188 C0.70099687 189.07433058 0.70099687 189.07433058 0.87974548 191.62586975 C0.88196609 192.79613205 0.88418671 193.96639435 0.88647461 195.17211914 C0.88632858 195.81600082 0.88618256 196.45988251 0.8860321 197.12327576 C0.88673115 199.26060303 0.89452309 201.39784413 0.90234375 203.53515625 C0.90420796 205.01346285 0.90563185 206.49177007 0.90663147 207.97007751 C0.91045641 211.86798802 0.92028648 215.76586149 0.93133545 219.66375732 C0.94155008 223.63846333 0.9461292 227.61317529 0.95117188 231.58789062 C0.96190878 239.391944 0.97898491 247.19596682 1 255 C2.44197754 253.84334839 2.44197754 253.84334839 3.91308594 252.66333008 C4.45382751 252.22958572 4.99456909 251.79584137 5.55169678 251.34895325 C7.65346807 249.3913582 8.38692918 247.398327 9.25 244.6875 C9.56066406 243.71554687 9.87132812 242.74359375 10.19140625 241.7421875 C10.45824219 240.83726562 10.72507812 239.93234375 11 239 C11.391875 237.783125 11.78375 236.56625 12.1875 235.3125 C15.5092051 220.73889294 14.4002963 206.83618616 7.6328125 193.49609375 C5.98858558 190.98255069 4.50781527 189.61216696 2 188 Z M-21.5625 191.625 C-24.58655081 194.6664805 -24.29072671 197.67423804 -24.375 201.8125 C-24.60868613 208.05062147 -25.55088197 210.78756891 -30.015625 215.05859375 C-32.30362414 217.2970496 -34.04694928 219.68750981 -35.875 222.3125 C-36.44992187 223.13363281 -37.02484375 223.95476562 -37.6171875 224.80078125 C-40.1963364 228.902648 -40.86865404 233.25012577 -40 238 C-37.66663334 241.00333267 -37.66663334 241.00333267 -35 243 C-29.5264825 241.29589303 -28.12615195 238.61214309 -25.4140625 233.79296875 C-23.71475101 230.43659384 -22.27153768 227.04288867 -20.95703125 223.51953125 C-20 221 -20 221 -18.3984375 217.9765625 C-16.13626318 212.74435625 -16.6830972 207.15336476 -16.8125 201.5625 C-16.82603516 200.44939453 -16.83957031 199.33628906 -16.85351562 198.18945312 C-16.88867003 195.45912788 -16.93787894 192.72982256 -17 190 C-19.22421531 189.82148599 -19.22421531 189.82148599 -21.5625 191.625 Z M-18 226 C-19.87983387 232.37346066 -20.33569138 238.18440238 -20.3125 244.8125 C-20.32861328 245.75287109 -20.34472656 246.69324219 -20.36132812 247.66210938 C-20.36197266 248.56380859 -20.36261719 249.46550781 -20.36328125 250.39453125 C-20.36626221 251.20768799 -20.36924316 252.02084473 -20.37231445 252.85864258 C-20.13502112 255.4405077 -20.13502112 255.4405077 -17 258 C-17 247.44 -17 236.88 -17 226 C-17.33 226 -17.66 226 -18 226 Z M-47 256 C-46.835 257.44375 -46.67 258.8875 -46.5 260.375 C-45.67669352 268.98339566 -45.69616718 276.11741633 -48.24609375 284.45703125 C-48.98719227 286.95679881 -49.52615493 289.43755626 -50 292 C-45.37672877 289.01618665 -40.89906498 285.97026252 -36.625 282.5 C-31.77715152 278.647462 -26.50213175 275.80762984 -21 273 C-21.5775 272.030625 -22.155 271.06125 -22.75 270.0625 C-25.17035459 265.84416771 -27.07692504 261.46428115 -29 257 C-34.94 256.67 -40.88 256.34 -47 256 Z " fill="#FDFDFD" transform="translate(400,34)"/>
<path d="M0 0 C0.66 0.33 1.32 0.66 2 1 C3.13396105 5.22466418 3.22777024 7.43957349 1.56640625 11.52734375 C0.90511719 12.65269531 0.24382812 13.77804688 -0.4375 14.9375 C-1.09621094 16.08089844 -1.75492187 17.22429687 -2.43359375 18.40234375 C-3.20896484 19.68818359 -3.20896484 19.68818359 -4 21 C-4.33 21 -4.66 21 -5 21 C-3.57142857 3.57142857 -3.57142857 3.57142857 0 0 Z " fill="#F4F4F4" transform="translate(325,237)"/>
<path d="M0 0 C0.33 0 0.66 0 1 0 C1 2.97 1 5.94 1 9 C0.01 9 -0.98 9 -2 9 C-4 6 -4 6 -3.625 3.8125 C-3.41875 3.214375 -3.2125 2.61625 -3 2 C-2.01 2 -1.02 2 0 2 C0 1.34 0 0.68 0 0 Z " fill="#CACACA" transform="translate(383,249)"/>
</svg>
