<svg xmlns="http://www.w3.org/2000/svg" xmlns:xlink="http://www.w3.org/1999/xlink" version="1.1" width="256" height="256" viewBox="0 0 256 256" xml:space="preserve">
<g style="stroke: none; stroke-width: 0; stroke-dasharray: none; stroke-linecap: butt; stroke-linejoin: miter; stroke-miterlimit: 10; fill: none; fill-rule: nonzero; opacity: 1;" transform="translate(1.4065934065934016 1.4065934065934016) scale(2.81 2.81)">
	<path d="M 0 45 L 0 45 c 0 24.853 20.147 45 45 45 h 0 c 24.853 0 45 -20.147 45 -45 v 0 C 90 20.147 69.853 0 45 0 h 0 C 20.147 0 0 20.147 0 45 z M 10.678 41.285 c 1.994 -8.404 8.688 -15.038 17.105 -16.979 c 6.925 -1.596 13.498 -0.108 18.62 3.362 c -2.685 3.121 -4.914 7.905 -7.419 15.211 c -1.52 -2.081 -4.152 -3.298 -7.029 -2.748 c -2.74 0.524 -4.953 2.725 -5.485 5.464 C 25.599 50.077 29.008 54 33.333 54 c 0.006 0 0.012 0 0.019 0 c 0.76 -0.001 1.489 -0.127 2.173 -0.352 l -5.187 16.487 C 17.068 68.433 7.283 55.594 10.678 41.285 z M 59.56 41.167 c 5.929 1.706 12.927 0 12.927 0 c -2.031 8.867 -8.471 14.42 -17.758 15.096 c -3.681 8.543 -12.093 14.076 -21.396 14.071 l 7 -22.249 c 7.196 -22.869 10.885 -24.418 27.95 -24.418 H 80 C 78.04 32.3 71.285 38.895 59.56 41.167 z" style="stroke: none; stroke-width: 1; stroke-dasharray: none; stroke-linecap: butt; stroke-linejoin: miter; stroke-miterlimit: 10; fill: rgb(0,0,0); fill-rule: nonzero; opacity: 1;" transform=" matrix(1 0 0 1 0 0) " stroke-linecap="round"/>
</g>
</svg>
